<svg version="1" xmlns="http://www.w3.org/2000/svg" width="682.667" height="682.667"
     viewBox="0 0 512.000000 512.000000">
    <path d="M302 15.3c-2.8 1.4-3.9 5.9-2 8.2.6.7 6.1 3 12.3 5.1 29.8 10.2 64.3 32 83.8 53.2 31.7 34.1 50.7 73.6 56.4 117 1.7 13.1 2 40 .4 52.2-4.8 39.2-21.7 78.4-46.3 107.9-55.4 66.2-143.4 92.1-224.6 65.9-14.5-4.7-35.1-14.2-46.6-21.6-8.7-5.6-11.2-6.2-13.7-3.4-1.7 1.9-2.2 6.8-.9 8.8 1.1 1.7 11.4 8 23.5 14.4 23.5 12.3 52 20.8 80 23.6l6.8.6-.3 4.1c-.3 4-.4 4.2-4.8 5-20.2 3.8-37.2 12.7-51.1 26.9l-7.6 7.7-17.6.3c-20.3.3-20.7.5-21.5 8.7-.4 4.3-.1 5.3 2.1 7.5l2.6 2.6h228l2-2.6c2.7-3.5 2.8-10.3.2-13.5-1.9-2.3-2.4-2.4-19.3-2.7l-17.3-.3-7.5-7.3c-14.4-14.1-33.4-24.1-51.7-27.1-4.3-.7-4.3-.7-4.3-5 0-4.8-.8-4.5 13-6 27.9-3.3 64.7-16.9 90-33.5 18.6-12.2 39-30.6 52.1-47 19.2-23.9 33.9-53.2 41.4-82.5 5.4-20.9 6.9-33.3 6.9-56 0-22.7-1.5-35.1-6.9-56-18.4-71.3-72.7-129.9-142.3-153.4-10.5-3.5-11.6-3.6-15.2-1.8z"/>
    <path d="M224 27.1c-44.9 5.1-86.9 25.2-119.4 57.4C76.7 112 57.3 148 49.5 186.2c-6.5 32.6-5.6 62.8 3.1 94.7 18.5 68 74.7 123.2 143.2 140.6 92.6 23.4 187.8-20 230.5-105.1 24.5-48.9 27.5-108 8.1-160.1-10.3-27.7-26.9-53-48.2-73.5-33.5-32.1-74-51.1-119.2-55.8-11.1-1.1-32.3-1.1-43 .1zm47.4 7.4c65 8.5 121.4 49.6 149.6 108.8 9 19 15.7 42 17.5 60.7l.7 6.5-2.2-3.4c-5.6-8.8-12.2-32.1-13.6-48.1l-.7-7.5-12.1-12.5c-6.7-6.9-16.5-17.3-21.9-23.1-9.1-9.9-10.1-10.7-15.1-11.8-10.8-2.4-26.1-11.8-24.2-14.9.3-.5 2.1-1.3 4-1.6 1.9-.4 4.6-1.6 6-2.7 3.8-3 3.4-6.7-1.2-11.2l-3.8-3.8-6.9 1.6c-16.9 4-37-3.5-53.5-19.8-11.2-11-18.8-14.9-30.3-15.5-14.5-.7-39.1 5-55.4 12.9-17.3 8.3-27.2 19.6-31.2 35.1-2.6 9.9-3.3 11.2-7.5 13.2-6.9 3.3-21.1 1.8-39.1-4.1-11.8-3.8-13.8-5-12.5-7.2 1.4-2.7 8.8-4.9 21-6.3l10.6-1.2-1.5-4.2c-1.2-3.4-1.3-5.1-.5-8.3.6-2.3.9-4.1.7-4.1-.2 0-2.2.9-4.4 2.1-2.2 1.1-4.5 1.9-5.1 1.7-1.3-.5 18.3-11.7 28.2-16.1 16.4-7.5 40.8-14 60-16 9.4-1 34-.6 44.4.8zm24.5 44.7c7.8 2.4 20.9 9 24.5 12.3 2.4 2.3 2.6 3 2.6 12 0 10.2.4 11.4 5.7 18.4 1.8 2.4 3.3 4.8 3.3 5.2 0 .5-2.1.9-4.7.9-10.2-.1-12.5-1.2-26.5-12-17.5-13.6-18.4-14.1-26-14.3l-6.3-.2-.3 3.1c-.4 3.9 1.4 5.4 10.8 8.8 4.1 1.5 8.2 3.2 9.1 3.9 2 1.5 10.9 15.9 10.9 17.6 0 .8-2.7 1.1-9.1.9-9.8-.3-9.8-.3-11.6-6.3-.4-1.6-1.6-3.1-2.5-3.3-1.7-.3-2.2.9-4.2 10-.4 1.7-2 3.4-4.5 4.9-4.9 2.7-6.1 5.4-6.4 14.3l-.2 7 9.1 3.1c6.5 2.1 10.4 4.2 13.3 6.8 2.3 2.1 4.6 3.5 5.2 3.2.5-.4 1.6-2.3 2.4-4.3 3.2-7.5 3.1-7.8-2.8-13.6-5.4-5.4-7.7-10-5.8-11.9.5-.5 6.3-1 12.8-1.1l11.9-.1 11.3 7.4c6.2 4.1 11.6 8.2 12.2 9.2.6 1.3.1 4.2-1.7 9.9-1.4 4.5-2.3 8.8-2 9.5.2.7 2.9 2.6 5.8 4.1 4.5 2.5 5.3 3.4 5.6 6 .4 3.7-3 7-8.3 8-1.8.3-4.2 1.6-5.3 2.7-1.9 2.1-19.2 47-19.2 49.9 0 .7.7 4.6 1.7 8.6 1.2 5.2 1.4 7.5.6 8.3-2.2 2.2-5.1-.1-7.7-6.2-1.4-3.3-3.3-6.2-4.2-6.6-.9-.3-7.3.8-14.3 2.6-19.9 5.1-23.2 6.2-23.8 7.8-1.1 2.8 5.2 23.9 7.3 24.7.9.3 6-.1 11.4-1.1 11.3-1.8 12.4-1.5 13.4 4.3.8 3.7 2.4 4.8 8.7 5.9 5.4.8 6.4 2.6 6.4 11.5v7.6l-8.7-1.7c-4.7-1-12.6-3.4-17.5-5.4-4.8-2-17-5.5-27.1-7.9-10.5-2.5-19-5-20.1-6-1.1-1-2.2-3.2-2.5-5.1-1.9-10-3.8-13.9-9.9-20.2-3.3-3.5-6.4-6.3-6.9-6.3-.4 0-.8 2.2-.8 5 0 2.7-.4 5-.9 5s-2.9-2.2-5.4-5c-4.3-4.7-4.5-5.2-4.9-12.4-.5-7.5-.5-7.6-9.1-20.7-4.8-7.2-8.7-14.1-8.7-15.3 0-1.2 2.5-9.6 5.5-18.6 3-9 5.5-17.3 5.5-18.3 0-1.1-2.1-4.7-4.6-8.1l-4.6-6.1.6-6.6.6-6.6-5.8-9.3c-3.2-5.1-6.6-9.6-7.5-10.1-1-.6-6.1-.6-13.4 0-7 .6-12.1.7-12.6.2-.6-.6.5-2.7 2.5-5.3 4.7-5.7 5.4-7.3 6.7-14.2.6-3.2 1.6-6.5 2.3-7.3 1.8-2.2 23.7-12.3 26.6-12.3 1.5 0 5.4 2.3 10.1 6.1 4.2 3.4 8.6 6.6 9.7 7.1 1.7.8 4.8-.2 15.9-5.1 7.6-3.4 14.9-6.1 16.4-6.1 1.4 0 5.1.7 8.1 1.5s5.7 1.5 5.9 1.5c.3 0-.7-1.2-2.1-2.8-1.4-1.5-2.8-3.5-3.1-4.5-2.3-6.5 14.6-17.8 30.6-20.6 6.3-1.1 12-.6 20.6 2.1zm85.6 218.3c9.6 0 12.6.3 14.6 1.7 4.8 3.1 9.2 3.2 17.4.4 8.7-3 13-2.7 11.9.8-1.4 4.5-9.9 21.1-15 29.2-7.8 12.4-16.8 23.5-28 34.6-16.2 15.9-29.1 25.4-47.2 34.7-10.2 5.2-20.2 9.4-20.2 8.5 0-.3 3.4-5 7.5-10.4 4.1-5.5 8-11.1 8.5-12.5 1.1-2.8.1-6.4-2.4-8.4-.9-.8-6.2-6.2-11.7-12.2-12.6-13.6-12.7-14.2-4.4-25.6 3.1-4.3 8.2-12.8 11.1-19 5.2-10.7 9-15.5 13.1-16.7 1-.2 5-1 8.8-1.6 3.9-.6 8.8-2 11-3 3.1-1.5 5.1-1.8 8.5-1.3 2.5.4 9.9.8 16.5.8z"/>
</svg>